<?xml version="1.0" encoding="utf-8"?>
<!-- Generator: Adobe Illustrator 25.0.1, SVG Export Plug-In . SVG Version: 6.00 Build 0)  -->
<svg version="1.1" id="Capa_1" xmlns="http://www.w3.org/2000/svg" xmlns:xlink="http://www.w3.org/1999/xlink" x="0px" y="0px"
	 viewBox="0 0 352 405" style="enable-background:new 0 0 352 405;" xml:space="preserve">
<style type="text/css">
	.st0{fill:#FC8634;}
	.st1{fill:url(#SVGID_1_);}
	.st2{fill:none;}
	.st3{fill:#B9122B;}
	.st4{opacity:0.35;fill:#B9122B;enable-background:new    ;}
	.st5{fill:url(#SVGID_2_);}
	.st6{fill:url(#SVGID_3_);}
	.st7{fill:url(#SVGID_4_);}
	.st8{fill:url(#SVGID_5_);}
	.st9{fill:url(#SVGID_6_);}
	.st10{fill:url(#SVGID_7_);}
	.st11{fill:url(#SVGID_8_);}
	.st12{fill:url(#SVGID_9_);}
	.st13{fill:url(#SVGID_10_);}
</style>
<g>
	<g>
		<path class="st0" d="M263.3,125.1c-0.1-0.2,0.1-0.4,0-0.6V89.8v-20V69h-92.8c-4.3-2.1-6.3-8-3.6-12.7c7-12.2,8.7-27.4-4.4-35.7
			c-10.6-6.7-25.1-2.4-31,9.3c-4.8,9.6-0.9,18.1,3.7,26.7c2.5,4.8,0.4,10.4-3.8,12.5H80.2v0.8v21.6V124c1.3,5.6,7.4,8.6,12.2,5.3
			c11.3-7.6,25.3-9.4,33,4.8c6.2,11.5,1.6,26.9-9.2,33.3c-8.9,5.2-16,1-24.1-3.7c-5.3-3.1-10.8-0.7-11.9,5.4V223h73l12.4-23.3
			L145,102.5c-0.3-1.9,0.5-3.2,2.5-3.2h16.9c1.7,0,2.7,0.7,3,2.7l7.9,49.4h0.7l9.3-49.4c0.3-1.9,1.4-2.7,3-2.7h6.8
			c1.7,0,2.9,0.8,3.2,2.7l9.5,49.4h0.7l7.8-49.4c0.3-2,1.4-2.7,3-2.7h17.1c2,0,2.9,1.4,2.4,3.2l-20.6,97.2L205.6,223h57.7v-54.8
			c0.1-0.2-0.1-0.4,0-0.6L263.3,125.1L263.3,125.1z"/>
		<polygon class="st0" points="192.6,142.1 191.7,142.1 182.7,199.6 170,223 188.9,223 201.4,199.6 		"/>
	</g>
	<g>
		
			<linearGradient id="SVGID_1_" gradientUnits="userSpaceOnUse" x1="-8795.9004" y1="1191.6328" x2="-8775.6758" y2="1167.9832" gradientTransform="matrix(0.3137 -0.9495 -0.9495 -0.3137 4144.7788 -7904.1157)">
			<stop  offset="0" style="stop-color:#EE9725"/>
			<stop  offset="0.3123" style="stop-color:#EF9825"/>
			<stop  offset="0.8383" style="stop-color:#E17324"/>
		</linearGradient>
		<path class="st1" d="M259.4,61.6c-2.1,1.6-5.3,5.7-9.1,11.7l5,7.2c2.4-4.4,4.8-8.4,7.4-11.9c0.2-0.3,0.3-0.4,0.3-0.4
			c-0.1,0.1-0.2,0.3-0.3,0.4c-0.8,1.2-3.3,4.8-6.8,12c4.1-0.7,10.5-2.3,15.6-3.8c0.5-8.9-3-12.5-3-12.5S263.7,58.4,259.4,61.6z"/>
		<path class="st2" d="M257.7,106.2L257.7,106.2l-0.5,0.1c0,0-0.1,0-0.1,0.1C257.3,106.3,257.5,106.3,257.7,106.2z"/>
		<path class="st2" d="M255.1,120.4c-0.3,0.1-0.7,0.2-1,0.3C254.5,120.7,254.8,120.6,255.1,120.4z"/>
		<path class="st2" d="M230.6,154.6c0-0.1,0.1-0.2,0.1-0.4c0.6-2.5,1.2-4.9,1.8-7.2c0.7-2.6,1.4-5.2,2.1-7.6
			c0.7-2.6,1.4-5.1,2.2-7.6c0.7-2.6,1.5-5,2.2-7.4c0.6-1.9,1.2-3.8,1.8-5.6c0.2-0.6,0.4-1.2,0.6-1.8c0.4-1.2,0.8-2.3,1.2-3.5
			c0.4-1,0.7-2.1,1.1-3.1c0.1-0.3,0.2-0.7,0.3-1c0-0.1,0-0.1,0.1-0.2l-0.5,0.1l-0.5-0.7c0,0.1-0.1,0.2-0.1,0.2
			c-0.5,1.5-1.1,3-1.6,4.5c-0.3,0.9-0.6,1.8-0.9,2.7c-0.8,2.5-1.7,4.9-2.4,7.4c-0.8,2.5-1.6,5.1-2.3,7.6s-1.5,5-2.2,7.4
			c-0.7,2.5-1.4,4.9-2,7.4c-0.7,2.6-1.4,5.1-2,7.6c-0.1,0.6-0.3,1.1-0.4,1.7c-0.5,2-1,4-1.5,6l0.8,1.2l0.6-0.1c0-0.1,0-0.1,0-0.2
			C229.3,159.6,230,157,230.6,154.6z"/>
		<path class="st2" d="M253.9,120.8L253.9,120.8L253.9,120.8z"/>
		<path class="st3" d="M253.3,127.7c-0.5,0.2-1,0.3-1.6,0.5l0,0c0.3-0.1,0.5-0.1,0.8-0.2C252.8,127.8,253.1,127.8,253.3,127.7z"/>
		<path class="st4" d="M253.3,127.7c-0.5,0.2-1,0.3-1.6,0.5l0,0c0.3-0.1,0.5-0.1,0.8-0.2C252.8,127.8,253.1,127.8,253.3,127.7z"/>
		<path class="st3" d="M253.9,120.8L253.9,120.8L253.9,120.8c0.1,0,0.2,0,0.2-0.1c0.3-0.1,0.7-0.2,1-0.3
			C254.7,120.6,254.3,120.7,253.9,120.8L253.9,120.8L253.9,120.8z"/>
		<path class="st4" d="M253.9,120.8L253.9,120.8L253.9,120.8c0.1,0,0.2,0,0.2-0.1c0.3-0.1,0.7-0.2,1-0.3
			C254.7,120.6,254.3,120.7,253.9,120.8L253.9,120.8L253.9,120.8z"/>
		
			<linearGradient id="SVGID_2_" gradientUnits="userSpaceOnUse" x1="-8945.584" y1="1194.4388" x2="-8801.2891" y2="1194.4388" gradientTransform="matrix(0.3137 -0.9495 -0.9495 -0.3137 4144.7788 -7904.1157)">
			<stop  offset="0.3233" style="stop-color:#9C1659"/>
			<stop  offset="0.6302" style="stop-color:#C30E33"/>
			<stop  offset="0.7514" style="stop-color:#C61031"/>
			<stop  offset="1" style="stop-color:#E17324"/>
		</linearGradient>
		<path class="st5" d="M245.6,101.7c1-2.5,1.9-4.9,3-7.2c1-2.4,2.1-4.8,3.2-7.1c0.1-0.1,0.1-0.3,0.2-0.4c1.1-2.3,2.2-4.4,3.3-6.5
			l-5-7.2c-0.3,0.4-0.5,0.8-0.8,1.2c-1,1.6-2,3.3-3.1,5.1c-1.2,2-2.4,4.2-3.6,6.5c-1.1,2.1-2.3,4.3-3.4,6.6c-1,1.9-1.9,3.9-2.9,5.9
			c0,0.1-0.1,0.2-0.1,0.2l6.5,9.8C243.8,106.4,244.7,104,245.6,101.7z"/>
		
			<linearGradient id="SVGID_3_" gradientUnits="userSpaceOnUse" x1="-8928.166" y1="1180.0078" x2="-8842.1807" y2="1180.0078" gradientTransform="matrix(0.3137 -0.9495 -0.9495 -0.3137 4144.7788 -7904.1157)">
			<stop  offset="0" style="stop-color:#142758"/>
			<stop  offset="9.548389e-02" style="stop-color:#61287D"/>
			<stop  offset="0.7882" style="stop-color:#9D155A"/>
			<stop  offset="0.9487" style="stop-color:#C60E2E"/>
		</linearGradient>
		<path class="st6" d="M228.4,163.4c-0.5,2-0.9,4-1.4,6.1v0.1c-0.1,0.3-0.1,0.6-0.2,0.9c-0.3,1.4-0.6,2.7-1.2,5.5
			c1.6,0.5,3.1,2.3,4.5,4.2c-0.4-2.2-1.5-4.1-3.5-5.5c7.7-0.6,14.1-3.3,16.9-9.3c0.2-0.5,0.5-1.1,0.7-1.7c-1.3,2.2-3.2,3.2-6.8,3.4
			l0,0l0,0c5.1-3,7.5-5.6,9.4-9.7c0.5-1,0.9-2,1.3-3.2c-4.1,5.3-9.4,7.4-15.2,7l-4.2,1C228.6,162.7,228.5,163.1,228.4,163.4z"/>
		
			<linearGradient id="SVGID_4_" gradientUnits="userSpaceOnUse" x1="-8937.4795" y1="1195.7976" x2="-8793.1855" y2="1195.7976" gradientTransform="matrix(0.3137 -0.9495 -0.9495 -0.3137 4144.7788 -7904.1157)">
			<stop  offset="0.3233" style="stop-color:#9C1659"/>
			<stop  offset="0.6302" style="stop-color:#C30E33"/>
			<stop  offset="0.7514" style="stop-color:#C61031"/>
			<stop  offset="1" style="stop-color:#E17324"/>
		</linearGradient>
		<path class="st7" d="M229.3,153.6c0.6-2.5,1.3-5,2-7.6c0.7-2.4,1.3-4.9,2-7.4s1.4-5,2.2-7.4c0.8-2.5,1.5-5.1,2.3-7.6
			s1.6-5,2.4-7.4c0.3-0.9,0.6-1.8,0.9-2.7c0.5-1.5,1.1-3,1.6-4.5c0-0.1,0.1-0.2,0.1-0.2l-6.5-9.8c-0.1,0.2-0.1,0.3-0.2,0.5
			c-1,2.2-2,4.4-2.9,6.6c-1,2.3-1.9,4.6-2.8,6.9c-0.8,2-1.5,3.9-2.2,5.9c-0.1,0.4-0.3,0.8-0.4,1.2c-0.9,2.5-1.6,4.9-2.3,7.2
			c-0.8,2.6-1.4,5.1-2,7.5c-0.4,1.6-0.7,3-1,4.5c-0.2,1.2-0.4,2.4-0.6,3.7c-0.5,2.9-0.8,5.7-1.1,8.5l6.5,9.9c0.5-2,1-3.9,1.5-6
			C229,154.8,229.1,154.2,229.3,153.6z"/>
		
			<linearGradient id="SVGID_5_" gradientUnits="userSpaceOnUse" x1="-8926.9561" y1="1193.8267" x2="-8851.125" y2="1193.8267" gradientTransform="matrix(0.3137 -0.9495 -0.9495 -0.3137 4144.7788 -7904.1157)">
			<stop  offset="0" style="stop-color:#142758"/>
			<stop  offset="9.548389e-02" style="stop-color:#61287D"/>
			<stop  offset="0.7882" style="stop-color:#9D155A"/>
			<stop  offset="0.9487" style="stop-color:#C60E2E"/>
		</linearGradient>
		<path class="st8" d="M220.8,151.8c-0.3,3.4-0.4,6.8-0.2,10.2c0,0.1,0,0.2,0,0.4c-2-2.5-6.7-4.5-6.7-4.5c3.7,4.2,6.7,8.5,7.6,13
			c-1.7,0.5-4.1,0.3-6.9-0.4c3.1,2.3,5.3,2.7,6.2,2.8c-2.6,0.5-5,2.6-7.5,4.9c3.8-2.1,6.9-3.1,9.2-2.8c-2.4,10.7-4.7,22.5-7,35
			c1.1-0.5,1.7-1.3,1.9-2.4c0.4-2.3,3-17.1,7.6-36.7c0.1-0.6,0.3-1.1,0.4-1.7c0-0.2,0.1-0.3,0.1-0.5c0.5-2.1,1-4.2,1.5-6.3
			c0.1-0.5,0.2-1,0.4-1.5l0,0l-6.5-9.9C220.8,151.5,220.8,151.7,220.8,151.8z"/>
		
			<linearGradient id="SVGID_6_" gradientUnits="userSpaceOnUse" x1="-8937.4795" y1="1181.0153" x2="-8793.1855" y2="1181.0153" gradientTransform="matrix(0.3137 -0.9495 -0.9495 -0.3137 4144.7788 -7904.1157)">
			<stop  offset="0.3233" style="stop-color:#9C1659"/>
			<stop  offset="0.6302" style="stop-color:#C30E33"/>
			<stop  offset="0.7514" style="stop-color:#C61031"/>
			<stop  offset="1" style="stop-color:#E17324"/>
		</linearGradient>
		<path class="st9" d="M243.8,109.5c-0.1,0.3-0.2,0.7-0.3,1c-0.3,1-0.7,2-1.1,3.1c-0.4,1.1-0.8,2.3-1.2,3.5
			c-0.2,0.6-0.4,1.2-0.6,1.8c-0.6,1.8-1.2,3.7-1.8,5.6c-0.7,2.4-1.5,4.8-2.2,7.4c-0.7,2.4-1.4,5-2.2,7.6c-0.7,2.5-1.4,5-2.1,7.6
			c-0.6,2.3-1.2,4.7-1.8,7.2c0,0.1-0.1,0.2-0.1,0.4c-0.6,2.4-1.2,5-1.8,7.5c0,0.1,0,0.1,0,0.2l4.2-1c-0.1,0-0.2,0-0.3,0
			c5-1.2,11.4-5.9,15.2-11.1c1.8-2.4,3.3-5.2,4.7-8.4c1-2.4,1.9-5,2.7-7.9c0.7-2.5,1.3-5.2,1.9-8.1c-1.1,0.8-2.4,1.4-3.8,1.9
			c-0.3,0.1-0.5,0.2-0.8,0.2c-0.3,0.1-0.5,0.2-0.8,0.2l0,0l0,0l0,0c4.6-2.4,7.1-6.3,8.8-10.9c-1.2,1-3.1,2.4-5.4,3.2
			c-0.3,0.1-0.7,0.2-1,0.3c-0.1,0-0.2,0-0.3,0.1l0,0l0,0l0,0l0,0l0,0c1.6-0.9,2.9-1.8,4-2.9c0.2-0.2,0.5-0.5,0.7-0.7
			c0.3-0.4,0.6-0.7,0.9-1.1c0.2-0.3,0.4-0.5,0.5-0.8c0.4-0.6,0.8-1.3,1.1-2c0.1-0.2,0.2-0.4,0.3-0.7c0.1-0.3,0.2-0.6,0.4-1
			c0.5-1.4,0.9-2.7,1.2-3.8c0.2-0.5,0.3-1.1,0.4-1.5c0-0.2,0.1-0.4,0.1-0.5c0.1-0.5,0.2-1,0.3-1.4c0.1-0.6,0.1-1.1,0.1-1.4l0,0l0,0
			c-0.1,0.1-0.3,0.3-0.5,0.4c-1.3,1-3.7,2.1-5.7,2.7l3.9-0.9l-3.9,0.9h-0.1c-0.2,0.1-0.4,0.1-0.6,0.2c0,0,0.1,0,0.1-0.1l-13.3,3.1
			C243.9,109.4,243.9,109.5,243.8,109.5z"/>
		
			<linearGradient id="SVGID_7_" gradientUnits="userSpaceOnUse" x1="-8946.4307" y1="1181.597" x2="-8802.1357" y2="1181.597" gradientTransform="matrix(0.3137 -0.9495 -0.9495 -0.3137 4144.7788 -7904.1157)">
			<stop  offset="0.3233" style="stop-color:#9C1659"/>
			<stop  offset="0.6302" style="stop-color:#C30E33"/>
			<stop  offset="0.7514" style="stop-color:#C61031"/>
			<stop  offset="1" style="stop-color:#E17324"/>
		</linearGradient>
		<path class="st10" d="M255.8,80.6c-1,2-2,4.2-3.2,6.7c-0.1,0.1-0.1,0.3-0.2,0.4c-1,2.2-2,4.6-3.1,7.2c-0.9,2.3-1.9,4.7-2.8,7.3
			c-0.9,2.3-1.7,4.7-2.6,7.2l13.3-3.1c3.7-2.3,5.3-4.1,6.7-6.7c0.4-0.7,0.7-1.4,1.1-2.2c1.1-2.3,2.2-4.8,3.1-7.3
			c0.9-2.4,1.7-4.8,2.2-6.9c0.3-1.4,0.6-2.6,0.8-3.7c0.1-1,0.2-1.9,0.3-2.7C266.2,78.3,259.9,79.9,255.8,80.6z"/>
		<path class="st3" d="M252.5,127.9c-0.3,0.1-0.5,0.2-0.8,0.2l0,0C252,128.1,252.3,128,252.5,127.9z"/>
		<path class="st4" d="M252.5,127.9c-0.3,0.1-0.5,0.2-0.8,0.2l0,0C252,128.1,252.3,128,252.5,127.9z"/>
		
			<linearGradient id="SVGID_8_" gradientUnits="userSpaceOnUse" x1="-8937.4795" y1="1176.4733" x2="-8793.1855" y2="1176.4733" gradientTransform="matrix(0.3137 -0.9495 -0.9495 -0.3137 4144.7788 -7904.1157)">
			<stop  offset="0.3233" style="stop-color:#9C1659"/>
			<stop  offset="0.6302" style="stop-color:#C30E33"/>
			<stop  offset="0.7514" style="stop-color:#C61031"/>
			<stop  offset="1" style="stop-color:#E17324"/>
		</linearGradient>
		<path class="st11" d="M252.5,127.9c-0.3,0.1-0.5,0.2-0.8,0.2l0,0C252,128.1,252.3,128,252.5,127.9z"/>
		<path class="st3" d="M253.9,120.8c0.1,0,0.2,0,0.3-0.1C254,120.8,254,120.8,253.9,120.8L253.9,120.8z"/>
		<path class="st4" d="M253.9,120.8c0.1,0,0.2,0,0.3-0.1C254,120.8,254,120.8,253.9,120.8L253.9,120.8z"/>
		
			<linearGradient id="SVGID_9_" gradientUnits="userSpaceOnUse" x1="-8937.4795" y1="1176.8961" x2="-8793.1855" y2="1176.8961" gradientTransform="matrix(0.3137 -0.9495 -0.9495 -0.3137 4144.7788 -7904.1157)">
			<stop  offset="0.3233" style="stop-color:#9C1659"/>
			<stop  offset="0.6302" style="stop-color:#C30E33"/>
			<stop  offset="0.7514" style="stop-color:#C61031"/>
			<stop  offset="1" style="stop-color:#E17324"/>
		</linearGradient>
		<path class="st12" d="M253.9,120.8c0.1,0,0.2,0,0.3-0.1C254,120.8,254,120.8,253.9,120.8L253.9,120.8z"/>
		<polygon class="st3" points="253.9,120.8 253.9,120.8 253.9,120.8 253.9,120.8 		"/>
		<polygon class="st4" points="253.9,120.8 253.9,120.8 253.9,120.8 253.9,120.8 		"/>
		
			<linearGradient id="SVGID_10_" gradientUnits="userSpaceOnUse" x1="-8840.5977" y1="1177.0228" x2="-8840.5977" y2="1177.0228" gradientTransform="matrix(0.3137 -0.9495 -0.9495 -0.3137 4144.7788 -7904.1157)">
			<stop  offset="0.3233" style="stop-color:#9C1659"/>
			<stop  offset="0.6302" style="stop-color:#C30E33"/>
			<stop  offset="0.7514" style="stop-color:#C61031"/>
			<stop  offset="1" style="stop-color:#E17324"/>
		</linearGradient>
		<polygon class="st13" points="253.9,120.8 253.9,120.8 253.9,120.8 253.9,120.8 		"/>
	</g>
</g>
</svg>
