<?xml version="1.0" encoding="utf-8"?>
<!-- Generator: Adobe Illustrator 25.0.1, SVG Export Plug-In . SVG Version: 6.00 Build 0)  -->
<svg version="1.1" id="Capa_1" xmlns="http://www.w3.org/2000/svg" xmlns:xlink="http://www.w3.org/1999/xlink" x="0px" y="0px"
	 viewBox="0 0 352 405" style="enable-background:new 0 0 352 405;" xml:space="preserve">
<style type="text/css">
	.st0{fill:#FC8634;}
	.st1{fill:#9D155A;}
</style>
<g>
	<path class="st0" d="M40.6,372.9c-1.2,0-2-0.6-2.3-1.8l-14.7-69.3c-0.2-1.3,0.4-2.3,1.8-2.3h12c1.2,0,1.9,0.5,2.2,1.9l5.6,34.9h0.5
		l6.6-34.9c0.2-1.3,1-1.9,2.2-1.9h4.8c1.2,0,2,0.6,2.3,1.9l6.7,34.9h0.5l5.5-34.9c0.2-1.4,1-1.9,2.2-1.9h12.1c1.4,0,2,1,1.7,2.3
		l-14.7,69.3c-0.1,1.2-1,1.8-2.2,1.8H66c-1.2,0-1.9-0.6-2.2-1.9l-6.3-41.1h-0.6L50.1,371c-0.2,1.2-1.1,1.9-2.3,1.9H40.6z"/>
	<path class="st0" d="M92.6,356.5V316c0-11.4,4.3-17.5,15.4-17.5c4.8,0,9.2,3.2,10.4,7.1h0.6v-3.9c0-1.3,0.7-2,2-2h11.1
		c1.3,0,2,0.7,2,2V371c0,1.3-0.7,2-2,2H121c-1.3,0-2-0.7-2-2v-3.9h-0.6c-1.2,3.8-5.6,7.1-10.4,7.1C96.9,374,92.6,367.9,92.6,356.5z
		 M118.6,357.1v-41.7c-0.7-2-2-4.1-5.3-4.1s-5,2-5,6.1v37.7c0,4.1,1.7,6.1,5,6.1C116.5,361.2,117.8,359.2,118.6,357.1z"/>
	<path class="st0" d="M143.6,387.1c-1.2-0.1-1.8-1-1.8-2.2v-9.3c0-1.3,0.6-2.2,1.7-1.9c0.6,0.1,1.6,0.2,2.3,0.2
		c4.3,0,6.1-0.7,6.7-3.7l0.2-1l-14.8-67.5c-0.2-1.3,0.4-2.3,1.8-2.3h12.6c1.2,0,2,0.6,2.2,1.9l6.8,48.4h0.5l5.7-48.3
		c0.1-1.3,1-2,2.2-2h11.7c1.3,0,2,1,1.8,2.3L169.4,368c-3.5,15.9-9.2,19.5-21.2,19.5C146.7,387.5,145,387.3,143.6,387.1z"/>
	<path class="st0" d="M185.5,356.5V316c0-11.4,4.3-17.5,15.4-17.5c4.8,0,9.2,3.2,10.4,7.1h0.6v-3.9c0-1.3,0.7-2,2-2H225
		c1.3,0,2,0.7,2,2V371c0,1.3-0.7,2-2,2h-11c-1.3,0-2-0.7-2-2v-3.9h-0.6c-1.2,3.8-5.6,7.1-10.4,7.1
		C189.9,374,185.5,367.9,185.5,356.5z M211.5,357.1v-41.7c-0.7-2-2-4.1-5.3-4.1s-5,2-5,6.1v37.7c0,4.1,1.7,6.1,5,6.1
		S210.8,359.2,211.5,357.1z"/>
	<path class="st0" d="M236.4,372.9c-1.3,0-2-0.7-2-2v-69.3c0-1.3,0.7-2,2-2h11.1c1.3,0,2,0.7,2,2v3.9h0.6c2.4-3.8,6.5-7.1,12-7.1
		c12.4,0,13.8,7.4,13.8,19.6v52.8c0,1.3-0.7,2-2,2h-11.6c-1.3,0-2-0.7-2-2v-53c0-4.7-1.3-6.3-4.2-6.3c-2.6,0-4.7,1.2-6,4.2v55.1
		c0,1.3-0.7,2-1.9,2h-11.8V372.9z"/>
	<path class="st0" d="M323.7,317v27c0,6.5-2.3,11.5-6.8,14.6c3.3,1.3,6.7,5,6.7,11.5c0,11.4-7.3,17.5-20.8,17.5
		c-16.3,0-20.8-8.9-20.8-18.8v-1c0-1.3,0.7-2,2-2h11.7c1.2,0,1.9,0.7,1.9,2v2c0,3.5,1.9,5.5,5.1,5.5c3.5,0,5.3-2.3,5.3-6.9
		c0-5-2.3-5.9-4.9-5.9c-14,0-21.1-7.4-21.1-18.5v-27c0-10.2,4.3-18.5,20.9-18.5c3.2,0,6,0.4,8.3,1.1c1.9-0.5,3.5-3.3,3.5-11.7
		c0-1.4,0.7-2.2,2-2.2h9.4c1.3,0,2.2,1.3,1.8,3.6c-1.2,8-5.5,11.4-9.7,13.6C322.4,306.3,323.7,311.4,323.7,317z M308,343.4v-25.7
		c0-4.5-1.9-6.1-5.1-6.1c-3.3,0-5.1,1.6-5.1,6.1v25.7c0,4.4,1.8,6.1,5.1,6.1S308,347.8,308,343.4z"/>
</g>
<g>
	<path class="st1" d="M26,275.1l10.4-23c0.1-0.2,0.3-0.4,0.6-0.4h0.3c0.3,0,0.5,0.2,0.6,0.4l10.3,23c0.2,0.4-0.1,0.9-0.6,0.9h-1.4
		c-0.3,0-0.5-0.2-0.6-0.4l-2.5-5.6H31l-2.5,5.6c-0.1,0.2-0.3,0.4-0.6,0.4h-1.4C26.1,276,25.8,275.5,26,275.1z M42.3,267.8
		c-1.7-3.7-3.3-7.5-5-11.2H37l-5,11.2H42.3z"/>
	<path class="st1" d="M86,252.7c0-0.3,0.3-0.6,0.6-0.6h7.6c4.2,0,7.7,3.4,7.7,7.6c0,4.2-3.5,7.7-7.6,7.7h-5.6v8
		c0,0.3-0.3,0.6-0.6,0.6h-1.3c-0.4,0-0.6-0.3-0.6-0.6v-22.7H86z M94,264.8c2.8,0,5.2-2.1,5.2-5.2c0-3-2.4-4.9-5.2-4.9h-5.4v10.1H94z
		"/>
	<path class="st1" d="M135.9,275.1l10.4-23c0.1-0.2,0.3-0.4,0.6-0.4h0.3c0.3,0,0.5,0.2,0.6,0.4l10.3,23c0.2,0.4-0.1,0.9-0.6,0.9
		h-1.4c-0.3,0-0.5-0.2-0.6-0.4L153,270h-12.1l-2.5,5.6c-0.1,0.2-0.3,0.4-0.6,0.4h-1.4C135.9,276,135.7,275.5,135.9,275.1z
		 M152.1,267.8c-1.7-3.7-3.3-7.5-5-11.2h-0.3l-5,11.2H152.1z"/>
	<path class="st1" d="M206.3,251.7c3.5,0,6,1.2,8.3,3.2c0.3,0.3,0.3,0.7,0,1l-0.9,0.9c-0.3,0.3-0.5,0.3-0.9,0
		c-1.8-1.5-4-2.6-6.5-2.6c-5.4,0-9.5,4.5-9.5,9.8s4.1,9.8,9.5,9.8c3,0,4.7-1,6.5-2.6c0.3-0.3,0.6-0.2,0.9,0l0.8,0.8
		c0.3,0.2,0.2,0.7,0,0.9c-2.3,2.1-5.1,3.3-8.1,3.3c-6.8,0-12.3-5.4-12.3-12.3C193.9,257.2,199.4,251.7,206.3,251.7z"/>
	<path class="st1" d="M253.8,252.7c0-0.3,0.3-0.6,0.6-0.6h1.3c0.4,0,0.6,0.3,0.6,0.6v10h13.9v-10c0-0.3,0.3-0.6,0.6-0.6h1.3
		c0.3,0,0.6,0.3,0.6,0.6v22.6c0,0.3-0.3,0.6-0.6,0.6h-1.3c-0.4,0-0.6-0.3-0.6-0.6V265h-13.9v10.4c0,0.3-0.3,0.6-0.6,0.6h-1.3
		c-0.3,0-0.6-0.3-0.6-0.6V252.7z"/>
	<path class="st1" d="M313.7,252.7c0-0.3,0.3-0.6,0.6-0.6h13.5c0.4,0,0.6,0.3,0.6,0.6v1c0,0.3-0.3,0.6-0.6,0.6h-11.5v8.3h9.8
		c0.3,0,0.6,0.3,0.6,0.7v1c0,0.4-0.3,0.7-0.6,0.7h-9.8v8.7h11.5c0.4,0,0.6,0.3,0.6,0.6v1c0,0.3-0.3,0.6-0.6,0.6h-13.5
		c-0.4,0-0.6-0.3-0.6-0.6V252.7z"/>
</g>
</svg>
