<?xml version="1.0" encoding="utf-8"?>
<!-- Generator: Adobe Illustrator 25.0.1, SVG Export Plug-In . SVG Version: 6.00 Build 0)  -->
<svg version="1.1" id="Layer_1" xmlns="http://www.w3.org/2000/svg" xmlns:xlink="http://www.w3.org/1999/xlink" x="0px" y="0px"
	 viewBox="0 0 576 512" style="enable-background:new 0 0 576 512;" xml:space="preserve">
<style type="text/css">
	.st0{opacity:0.7;fill:#BCBCBC;}
</style>
<path class="st0" d="M519.4,288.7c-41.5,0-59.5,31.6-82.1,31.6c-60,0-5.4-176.2-5.4-176.2s-196.3,80-196.3-3.3
	c0-35.8,36.3-46.2,36.3-86C272,19.2,243.9,0,210.5,0c-34.7,0-66.4,18.9-66.4,56.3c0,41.4,31.7,59.3,31.7,81.8
	C175.9,207.7,0,166.8,0,166.8V500c0,0,178.6,41,178.6-28.7c0-22.5-40-40.1-40-81.5c0-37.5,29.2-56.3,63.6-56.3
	c33.7,0,61.8,19.2,61.8,54.7c0,39.7-36.3,50.2-36.3,86c0,60.8,129.7,25.7,181.2,25.7c0,0-34.7-120.1,25.8-120.1
	c36,0,46.4,36.2,86.3,36.2c35.6,0,54.9-28,54.9-61.6C576,320.2,557,288.7,519.4,288.7z"/>
</svg>
